<svg xmlns="http://www.w3.org/2000/svg" viewBox="0 0 64 64">
  <!-- Background circle -->
  <circle cx="32" cy="32" r="32" fill="#1B3A2D"/>
  <!-- Sun rays -->
  <g fill="#C9922A">
    <rect x="30" y="4"  width="4" height="10" rx="2"/>
    <rect x="30" y="50" width="4" height="10" rx="2"/>
    <rect x="4"  y="30" width="10" height="4" rx="2"/>
    <rect x="50" y="30" width="10" height="4" rx="2"/>
    <rect x="11.7" y="11.7" width="4" height="10" rx="2" transform="rotate(45 13.7 16.7)"/>
    <rect x="49.3" y="42.3" width="4" height="10" rx="2" transform="rotate(45 51.3 47.3)"/>
    <rect x="42.3" y="11.7" width="4" height="10" rx="2" transform="rotate(-45 44.3 16.7)"/>
    <rect x="11.7" y="42.3" width="4" height="10" rx="2" transform="rotate(-45 13.7 47.3)"/>
  </g>
  <!-- Sun centre -->
  <circle cx="32" cy="32" r="12" fill="#E5AE4C"/>
  <!-- Heart inside sun -->
  <path d="M32 38 C28 34 24 31 24 27.5 C24 24.4 26.7 22 30 22.5 C31 22.7 32 23.5 32 23.5 C32 23.5 33 22.7 34 22.5 C37.3 22 40 24.4 40 27.5 C40 31 36 34 32 38Z" fill="#1B3A2D"/>
</svg>
